<svg width="175" height="175" viewBox="0 0 175 175" fill="none" xmlns="http://www.w3.org/2000/svg">
<g filter="url(#filter0_di_70_990)">
<mask id="mask0_70_990" style="mask-type:alpha" maskUnits="userSpaceOnUse" x="48" y="44" width="78" height="78">
<rect x="48.6" y="44.5996" width="76.8" height="76.8" fill="#D9D9D9"/>
</mask>
<g mask="url(#mask0_70_990)">
<path d="M62.2 111.8C61.7582 111.8 61.4 111.442 61.4 111V73.8002C61.4 73.5484 61.5186 73.3113 61.72 73.1602L86.52 54.5602C86.8045 54.3469 87.1956 54.3469 87.48 54.5602L112.28 73.1602C112.481 73.3113 112.6 73.5484 112.6 73.8002V111C112.6 111.442 112.242 111.8 111.8 111.8H94.2C93.7582 111.8 93.4 111.442 93.4 111V90.2002C93.4 89.7584 93.0419 89.4002 92.6 89.4002H81.4C80.9582 89.4002 80.6 89.7584 80.6 90.2002V111C80.6 111.442 80.2419 111.8 79.8 111.8H62.2Z" fill="url(#paint0_linear_70_990)"/>
<path d="M62.2 111.8C61.7582 111.8 61.4 111.442 61.4 111V73.8002C61.4 73.5484 61.5186 73.3113 61.72 73.1602L86.52 54.5602C86.8045 54.3469 87.1956 54.3469 87.48 54.5602L112.28 73.1602C112.481 73.3113 112.6 73.5484 112.6 73.8002V111C112.6 111.442 112.242 111.8 111.8 111.8H94.2C93.7582 111.8 93.4 111.442 93.4 111V90.2002C93.4 89.7584 93.0419 89.4002 92.6 89.4002H81.4C80.9582 89.4002 80.6 89.7584 80.6 90.2002V111C80.6 111.442 80.2419 111.8 79.8 111.8H62.2Z" fill="white" fill-opacity="0.2"/>
</g>
</g>
<circle cx="87.4407" cy="87.4404" r="56" transform="rotate(-5.06264 87.4407 87.4404)" fill="url(#paint1_radial_70_990)"/>
<g filter="url(#filter1_d_70_990)">
<circle cx="24.5868" cy="18.2175" r="6.5" transform="rotate(-5.06264 24.5868 18.2175)" fill="#7CF280"/>
</g>
<circle cx="87.4415" cy="87.4418" r="80.14" transform="rotate(-5.06264 87.4415 87.4418)" stroke="black" stroke-dasharray="2 2"/>
<defs>
<filter id="filter0_di_70_990" x="58.2" y="54.4004" width="57.6" height="63.7994" filterUnits="userSpaceOnUse" color-interpolation-filters="sRGB">
<feFlood flood-opacity="0" result="BackgroundImageFix"/>
<feColorMatrix in="SourceAlpha" type="matrix" values="0 0 0 0 0 0 0 0 0 0 0 0 0 0 0 0 0 0 127 0" result="hardAlpha"/>
<feOffset dy="3.2"/>
<feGaussianBlur stdDeviation="1.6"/>
<feComposite in2="hardAlpha" operator="out"/>
<feColorMatrix type="matrix" values="0 0 0 0 1 0 0 0 0 1 0 0 0 0 1 0 0 0 0.25 0"/>
<feBlend mode="normal" in2="BackgroundImageFix" result="effect1_dropShadow_70_990"/>
<feBlend mode="normal" in="SourceGraphic" in2="effect1_dropShadow_70_990" result="shape"/>
<feColorMatrix in="SourceAlpha" type="matrix" values="0 0 0 0 0 0 0 0 0 0 0 0 0 0 0 0 0 0 127 0" result="hardAlpha"/>
<feOffset dy="1.6"/>
<feGaussianBlur stdDeviation="0.8"/>
<feComposite in2="hardAlpha" operator="arithmetic" k2="-1" k3="1"/>
<feColorMatrix type="matrix" values="0 0 0 0 0 0 0 0 0 0 0 0 0 0 0 0 0 0 0.24 0"/>
<feBlend mode="normal" in2="shape" result="effect2_innerShadow_70_990"/>
</filter>
<filter id="filter1_d_70_990" x="14.0864" y="7.7168" width="21.0007" height="21.001" filterUnits="userSpaceOnUse" color-interpolation-filters="sRGB">
<feFlood flood-opacity="0" result="BackgroundImageFix"/>
<feColorMatrix in="SourceAlpha" type="matrix" values="0 0 0 0 0 0 0 0 0 0 0 0 0 0 0 0 0 0 127 0" result="hardAlpha"/>
<feOffset/>
<feGaussianBlur stdDeviation="2"/>
<feComposite in2="hardAlpha" operator="out"/>
<feColorMatrix type="matrix" values="0 0 0 0 0 0 0 0 0 0 0 0 0 0 0 0 0 0 0.34 0"/>
<feBlend mode="normal" in2="BackgroundImageFix" result="effect1_dropShadow_70_990"/>
<feBlend mode="normal" in="SourceGraphic" in2="effect1_dropShadow_70_990" result="shape"/>
</filter>
<linearGradient id="paint0_linear_70_990" x1="87" y1="54.2002" x2="87" y2="111.8" gradientUnits="userSpaceOnUse">
<stop stop-color="#E1E1E1"/>
<stop offset="1" stop-color="#CCCCCC"/>
</linearGradient>
<radialGradient id="paint1_radial_70_990" cx="0" cy="0" r="1" gradientUnits="userSpaceOnUse" gradientTransform="translate(87.4407 87.4404) rotate(90) scale(56)">
<stop offset="0.652577" stop-color="white" stop-opacity="0"/>
<stop offset="1" stop-color="white" stop-opacity="0.34"/>
</radialGradient>
</defs>
</svg>
